<svg width="12" height="12" viewBox="0 0 12 12" fill="none" xmlns="http://www.w3.org/2000/svg">
<path d="M4.65917 1.74468C5.08121 0.445786 6.91879 0.445786 7.34083 1.74468C7.66344 2.73758 8.58871 3.40983 9.63271 3.40983C10.9984 3.40983 11.5663 5.15748 10.4614 5.96024C9.61678 6.57389 9.26335 7.6616 9.58597 8.65451C10.008 9.9534 8.52137 11.0335 7.41646 10.2307C6.57185 9.6171 5.42815 9.6171 4.58354 10.2307C3.47863 11.0335 1.992 9.9534 2.41403 8.65451C2.73665 7.6616 2.38322 6.57389 1.53861 5.96024C0.433707 5.15748 1.00155 3.40983 2.36729 3.40983C3.41129 3.40983 4.33656 2.73758 4.65917 1.74468Z" fill="#22272E" stroke="#CDD9DA"/>
</svg>
